<svg width="25" height="34" viewBox="0 0 25 34" fill="none" xmlns="http://www.w3.org/2000/svg">
<path d="M10.846 0.355469C8.34989 0.910934 6.43036 2.71797 5.70614 5.17891C5.58661 5.59375 5.54442 5.94531 5.52332 6.90859L5.48817 8.125H4.69364C3.75145 8.125 3.21004 8.26562 2.57723 8.67344C1.76864 9.20078 1.19911 9.98828 0.974105 10.9023C0.896761 11.2047 0.742074 13.9891 0.404574 20.9359C-0.0313635 30.0062 -0.0524572 30.5758 0.0530115 31.0609C0.341293 32.4461 1.36786 33.543 2.72489 33.9016C3.01317 33.9789 4.81317 34 12.2733 34H21.4702L22.0046 33.8242C23.2983 33.3883 24.1772 32.3969 24.4514 31.0609C24.5569 30.5758 24.5358 30.0062 24.0999 20.9711C23.7694 13.982 23.6147 11.268 23.5374 10.9375C23.3686 10.2203 23.1085 9.75625 22.56 9.20781C21.7514 8.39219 21.0694 8.125 19.8038 8.125H19.0163L18.9811 6.90859C18.96 5.94531 18.9179 5.59375 18.7983 5.17891C18.1233 2.87266 16.3796 1.12891 14.0733 0.453903C13.3913 0.25703 11.5491 0.200779 10.846 0.355469ZM12.9202 2.60547C14.4108 2.76719 15.8663 3.95547 16.4358 5.47422C16.6186 5.95937 16.7522 6.88047 16.7522 7.68203V8.125H12.2522H7.75223V7.68203C7.75223 6.88047 7.88582 5.95937 8.06864 5.47422C8.53973 4.23672 9.49598 3.28047 10.7335 2.8164C11.1975 2.64062 12.0343 2.5 12.3929 2.54219C12.4913 2.55625 12.7304 2.58437 12.9202 2.60547ZM20.1835 10.4523C20.6264 10.5437 21.0624 10.9094 21.21 11.3102C21.3014 11.5492 21.4139 13.3984 21.7725 21.0062C22.0889 27.482 22.2085 30.4844 22.1593 30.6461C22.0538 31.0258 21.8007 31.3492 21.4632 31.5391L21.1468 31.7148H12.2522H3.3577L3.06239 31.5602C2.71786 31.3703 2.45067 31.0469 2.35223 30.6742C2.23973 30.2734 3.13973 11.718 3.28739 11.3172C3.43504 10.9234 3.8077 10.5859 4.21551 10.4734C4.65848 10.3539 19.6421 10.3328 20.1835 10.4523Z" fill="white"/>
</svg>
