<svg width="30" height="26" viewBox="0 0 30 26" fill="none" xmlns="http://www.w3.org/2000/svg">
<path d="M6.74457 0.275944C5.6061 0.474186 4.22973 1.06891 3.34047 1.74294C1.83383 2.88141 0.71235 4.6486 0.247898 6.59137C-0.00132105 7.65622 -0.0749538 9.27048 0.0836398 10.3013C0.497116 12.9974 2.10571 15.5576 5.23793 18.5029C6.39907 19.5961 7.20903 20.3097 10.5055 23.1474C12.5332 24.8976 13.5528 25.7359 13.768 25.8379C14.2098 26.0531 14.7989 26.0531 15.2407 25.8435C15.6655 25.634 21.7034 20.4457 23.7481 18.5256C26.8803 15.5859 28.5116 12.9974 28.925 10.3013C29.0836 9.27048 29.01 7.65622 28.7608 6.59137C28.2963 4.6486 27.1748 2.88141 25.6682 1.74294C24.7563 1.05192 23.3912 0.468521 22.2075 0.275944C21.5674 0.168325 20.259 0.168325 19.6246 0.275944C17.8688 0.581802 16.2205 1.55602 14.9801 3.03434C14.7366 3.32321 14.527 3.5611 14.5043 3.5611C14.4817 3.5611 14.2721 3.32321 14.0286 3.03434C12.7881 1.55602 11.1399 0.581802 9.38403 0.275944C8.77231 0.17399 7.35629 0.17399 6.74457 0.275944ZM9.5766 2.1111C10.126 2.26969 11.0436 2.72282 11.4741 3.04567C12.0065 3.44782 12.7202 4.18981 13.1053 4.73923C13.2979 5.01677 13.5245 5.34528 13.6094 5.46423C14.0342 6.06462 14.9745 6.06462 15.3993 5.46423C15.4842 5.34528 15.7108 5.01677 15.9034 4.73923C16.2885 4.18981 17.0022 3.44782 17.5346 3.04567C17.9764 2.71716 18.8883 2.26969 19.4604 2.10543C19.8569 1.99215 20.0381 1.97516 20.933 1.97516C22.0489 1.98083 22.4227 2.04879 23.2836 2.3943C25.1924 3.17028 26.6198 4.98845 27.1125 7.27106C27.2598 7.95641 27.2655 9.75759 27.1182 10.4429C26.5801 12.9465 24.8866 15.1951 20.8651 18.7578C18.775 20.6099 14.5327 24.2066 14.4704 24.184C14.3854 24.15 9.47465 19.9416 8.13227 18.7465C4.09946 15.1668 2.43422 12.9465 1.89047 10.4429C1.74321 9.75759 1.74887 7.95641 1.89614 7.27106C2.46821 4.63727 4.21274 2.71149 6.56899 2.12243C7.1977 1.95817 7.25434 1.95817 8.24555 1.97516C8.97055 1.98649 9.23676 2.01481 9.5766 2.1111Z" fill="white"/>
</svg>
