<svg width="133" height="122" viewBox="0 0 133 122" fill="none" xmlns="http://www.w3.org/2000/svg">
<path fill-rule="evenodd" clip-rule="evenodd" d="M60.1766 0.15134C39.4273 2.10459 21.1313 12.5268 10.0525 28.704C-2.60341 47.1844 -3.36711 71.1349 8.09017 90.2577C16.2547 103.885 29.5928 114.083 45.7155 119.024C52.7821 121.19 58.4518 122 66.5495 122C74.1204 122 79.0865 121.367 85.529 119.58C106.477 113.769 122.963 99.0762 129.757 80.1597C132.123 73.5718 132.999 68.4369 133 61.1333C133.001 54.9508 132.557 51.5103 131.056 46.0781C129.78 41.4614 128.627 38.6001 126.253 34.1574C123.044 28.1545 119.442 23.4566 114.312 18.5845C103.939 8.73349 90.9797 2.63026 75.9136 0.50131C72.6525 0.040333 63.5139 -0.162822 60.1766 0.15134ZM75.3767 4.54984C86.0201 5.97909 96.6487 10.1778 105.16 16.3156C107.733 18.1715 113.746 23.7595 115.624 26.0408C119.638 30.9172 123.283 37.0362 125.17 42.0678C127.609 48.5721 128.568 53.9188 128.567 61.014C128.565 66.8066 128.176 69.8172 126.757 74.9911C122.35 91.0668 110.209 104.817 93.9916 112.101C87.7777 114.892 82.0536 116.54 75.2633 117.492C70.9405 118.099 62.1933 118.101 57.8356 117.498C44.0412 115.587 31.5996 109.755 22.0599 100.729C17.1115 96.0475 13.8176 91.7488 10.7426 85.9607C7.81029 80.4407 5.95515 74.9653 4.99637 68.9993C4.36325 65.0611 4.36325 56.9669 4.99637 53.0286C5.51816 49.7815 6.81795 44.9564 8.02176 41.7966C9.90396 36.8565 14.0494 30.0132 17.846 25.5786C19.8682 23.2169 25.957 17.6986 28.4426 15.975C37.5599 9.65306 48.4351 5.51739 58.746 4.45077C60.1051 4.3104 61.6268 4.15141 62.1275 4.09794C63.9884 3.8986 72.7542 4.19772 75.3767 4.54984ZM59.3963 10.5168C38.1246 13.1948 20.5036 26.5638 13.9045 45.0316C11.9443 50.5172 11.1491 55.1292 11.1491 61.014C11.1491 66.8988 11.9443 71.5107 13.9045 76.9963C16.623 84.604 21.0215 91.1167 27.3855 96.9573C32.1277 101.31 36.4154 104.137 42.2287 106.745C57.5224 113.605 75.5807 113.608 90.8569 106.754C102.232 101.65 111.37 93.1356 116.789 82.5932C124.571 67.4502 123.511 49.0083 114.037 34.7554C105.729 22.2561 92.3027 13.6904 76.7657 10.9773C73.7557 10.4516 72.2878 10.3384 67.5899 10.2704C63.8209 10.2157 61.1495 10.2959 59.3963 10.5168ZM73.1041 14.5801C92.2056 16.8943 108.276 28.8045 114.659 45.3775C122.428 65.5483 114.228 88.0825 94.8013 99.9473C81.6119 108.003 65.5597 109.988 50.446 105.433C29.6719 99.1729 15.5669 81.2096 15.5669 61.014C15.5669 37.2821 34.6214 17.5389 60.462 14.4958C63.3857 14.1516 69.9263 14.195 73.1041 14.5801ZM34.3881 33.1027C32.5647 33.7463 30.9215 35.1391 29.8543 36.9455L28.9628 38.4545V61.014V83.5734L29.8543 85.0824C30.9402 86.9204 32.5766 88.2894 34.4617 88.9369C35.8538 89.4148 36.3446 89.4222 66.5495 89.4222C96.7543 89.4222 97.2451 89.4148 98.6372 88.9369C100.522 88.2894 102.159 86.9204 103.245 85.0824L104.136 83.5734V61.014V38.4545L103.245 36.9455C102.159 35.1076 100.522 33.7385 98.6372 33.091C97.2443 32.6129 96.7717 32.606 66.4745 32.6181C36.4812 32.6303 35.6931 32.6422 34.3881 33.1027ZM82.2854 48.3666C73.4524 56.4772 69.1961 60.2231 68.4176 60.5706C66.9885 61.2088 65.3581 61.0765 64.0074 60.2126C63.4741 59.8717 57.4199 54.4338 50.5534 48.1283L38.0689 36.664H66.5495H95.03L82.2854 48.3666ZM46.3349 72.5231L34.0546 83.7938L33.6545 82.9155C33.3052 82.1478 33.2547 79.3922 33.2547 61.0572C33.2547 46.0029 33.3382 39.8575 33.5505 39.2988L33.8462 38.5204L46.2308 49.8865L58.6152 61.2527L46.3349 72.5231ZM99.8325 60.9619C99.8426 79.3991 99.7942 82.1471 99.4444 82.9155L99.0443 83.7938L86.7643 72.5236L74.4843 61.2534L86.8392 49.9092L99.1939 38.565L99.5073 39.226C99.7438 39.7243 99.8236 45.0676 99.8325 60.9619ZM63.6882 64.5948C65.5449 65.1943 67.4809 65.1914 69.4372 64.5867L71.0081 64.1009L72.2252 65.0422C73.6519 66.1453 94.1216 85.0089 94.1216 85.2204C94.1216 85.2992 81.7142 85.3639 66.5495 85.3639C51.3848 85.3639 38.9807 85.2834 38.9851 85.1848C38.997 84.9065 61.7241 64.1164 62.0068 64.1253C62.1447 64.1295 62.9013 64.3408 63.6882 64.5948Z" fill="white"/>
</svg>
