<svg width="36" height="35" viewBox="0 0 36 35" fill="none" xmlns="http://www.w3.org/2000/svg">
<path d="M16.3125 0.0719604C14.0766 0.461609 12.2836 1.35712 10.6945 2.86786C9.21094 4.2829 8.21953 6.02606 7.76953 8.04266C7.59375 8.82196 7.55156 10.7839 7.68516 11.6384C8.04375 13.8259 9.02109 15.6921 10.6242 17.2575C10.9477 17.572 11.3906 17.9616 11.6156 18.1257L12.0234 18.4196L11.5102 18.6042C9.92812 19.1784 7.82578 20.3815 6.46875 21.4958C4.60547 23.0134 2.925 25.071 1.87031 27.1013C0.738281 29.2888 0.00703125 32.1052 0 34.3063V34.9763H1.43437H2.86172L2.90391 34.0739C3.06562 30.5807 4.64766 27.1833 7.31953 24.5925C9.59062 22.3845 12.2625 21.0309 15.5391 20.4362C16.4953 20.2653 19.5047 20.2653 20.4609 20.4362C23.7375 21.0309 26.4094 22.3845 28.6805 24.5925C30.9445 26.7868 32.3859 29.4802 32.9414 32.5495C33.0047 32.8845 33.075 33.5749 33.0961 34.0739L33.1383 34.9763H34.5656H36V34.3063C35.993 32.1052 35.2617 29.2888 34.1297 27.1013C33.075 25.071 31.3945 23.0134 29.5312 21.4958C28.1742 20.3815 26.0719 19.1784 24.4898 18.6042L23.9766 18.4196L24.3914 18.1188C24.6164 17.9548 25.0523 17.572 25.3687 17.2712C26.9648 15.7126 27.9562 13.8259 28.3148 11.6384C28.4484 10.7839 28.4062 8.82196 28.2305 8.04266C27.5273 4.91864 25.4883 2.38251 22.5352 0.94696C22.0078 0.694031 20.8055 0.297546 20.1094 0.147156C19.3922 -0.0100708 17.0437 -0.0510864 16.3125 0.0719604ZM19.35 2.87469C20.9391 3.16864 22.3523 3.92059 23.4562 5.05536C24.8344 6.45673 25.5234 8.1452 25.5234 10.0934C25.5234 12.0417 24.8344 13.7302 23.4562 15.1315C22.0008 16.6286 20.1234 17.4079 18 17.4079C15.8766 17.4079 13.9992 16.6286 12.5437 15.1315C11.1656 13.7302 10.4766 12.0417 10.4766 10.0934C10.4766 9.19794 10.582 8.53485 10.8562 7.74188C11.707 5.27411 13.9219 3.40106 16.5938 2.88153C17.2195 2.75848 18.7102 2.75848 19.35 2.87469Z" fill="white"/>
</svg>
